Run_20002
nRows=4
nColumns=161

# SIMM Motion File Header:
name Run_20002
datacolumns 161
datarows 4
otherdata 1
range 4.08333300 4.10833300
endheader
time	pelvis_tilt	pelvis_list	pelvis_rotation	pelvis_tx	pelvis_ty	pelvis_tz	hip_flexion_r	hip_adduction_r	hip_rotation_r	knee_angle_r	ankle_angle_r	hip_flexion_l	hip_adduction_l	hip_rotation_l	knee_angle_l	ankle_angle_l	lumbar_extension	lumbar_bending	lumbar_rotation	arm_flex_r	arm_add_r	arm_rot_r	elbow_flex_r	pro_sup_r	arm_flex_l	arm_add_l	arm_rot_l	elbow_flex_l	pro_sup_l	subtalar_angle_r	mtp_angle_r	subtalar_angle_l	mtp_angle_l	wrist_flex_r	wrist_dev_r	wrist_flex_l	wrist_dev_l	LASI_tx	LASI_ty	LASI_tz	RASI_tx	RASI_ty	RASI_tz	LPSI_tx	LPSI_ty	LPSI_tz	RPSI_tx	RPSI_ty	RPSI_tz	RTH1_tx	RTH1_ty	RTH1_tz	RTH3_tx	RTH3_ty	RTH3_tz	LTH1_tx	LTH1_ty	LTH1_tz	LTH2_tx	LTH2_ty	LTH2_tz	LTH3_tx	LTH3_ty	LTH3_tz	RTB1_tx	RTB1_ty	RTB1_tz	RTB2_tx	RTB2_ty	RTB2_tz	RTB3_tx	RTB3_ty	RTB3_tz	LTB1_tx	LTB1_ty	LTB1_tz	LTB2_tx	LTB2_ty	LTB2_tz	LTB3_tx	LTB3_ty	LTB3_tz	RCAL_tx	RCAL_ty	RCAL_tz	RTOE_tx	RTOE_ty	RTOE_tz	RMT5_tx	RMT5_ty	RMT5_tz	LCAL_tx	LCAL_ty	LCAL_tz	LTOE_tx	LTOE_ty	LTOE_tz	LMT5_tx	LMT5_ty	LMT5_tz	LACR_tx	LACR_ty	LACR_tz	RACR_tx	RACR_ty	RACR_tz	CLAV_tx	CLAV_ty	CLAV_tz	C7_tx	C7_ty	C7_tz	RUA1_tx	RUA1_ty	RUA1_tz	RUA2_tx	RUA2_ty	RUA2_tz	RUA3_tx	RUA3_ty	RUA3_tz	RLEL_tx	RLEL_ty	RLEL_tz	RMEL_tx	RMEL_ty	RMEL_tz	LUA1_tx	LUA1_ty	LUA1_tz	LUA2_tx	LUA2_ty	LUA2_tz	LUA3_tx	LUA3_ty	LUA3_tz	LLEL_tx	LLEL_ty	LLEL_tz	LMEL_tx	LMEL_ty	LMEL_tz	RFAsuperior_tx	RFAsuperior_ty	RFAsuperior_tz	RFAradius_tx	RFAradius_ty	RFAradius_tz	RFAulna_tx	RFAulna_ty	RFAulna_tz	LFAsuperior_tx	LFAsuperior_ty	LFAsuperior_tz	LFAradius_tx	LFAradius_ty	LFAradius_tz	LFAulna_tx	LFAulna_ty	LFAulna_tz
      4.08333300	     -0.33578774	     -5.05868551	     -5.81401467	      0.91330508	      0.94060410	     -0.26285037	     20.43891692	     13.71510003	      4.33494990	    -44.26191318	     18.75711869	     14.45252903	     -6.92551832	     -4.28587227	    -84.13539085	      1.73662206	    -14.20548196	      7.23811358	     -0.09827646	    -21.37407881	    -19.21435108	      2.31254626	     81.75192284	    101.97374471	    -24.07541915	    -14.77298978	      2.30953827	     92.97916931	    111.39474721	      0.00000000	      0.00000000	      0.00000000	      0.00000000	      0.00000000	      0.00000000	      0.00000000	      0.00000000	      0.93508577	      0.96051966	     -0.38186430	      0.91593236	      0.97088976	     -0.14898306	      0.77070808	      0.99371689	     -0.32981445	      0.75126050	      0.99868945	     -0.23248549	      0.87435039	      0.80532407	     -0.09188656	      0.94204230	      0.55701487	     -0.15475626	      0.90287918	      0.77118505	     -0.44470210	      0.97395894	      0.67080054	     -0.43541137	      0.91692923	      0.55462387	     -0.42466426	      0.97844983	      0.33506776	     -0.23868715	      0.92647777	      0.28421041	     -0.17690096	      0.91693672	      0.22822230	     -0.25046734	      0.86443449	      0.37619305	     -0.34193407	      0.76898367	      0.38868901	     -0.42693191	      0.69626483	      0.31871798	     -0.36221836	      0.75353022	      0.10660179	     -0.25864896	      0.95739993	      0.07098242	     -0.28661311	      0.93827955	      0.06039124	     -0.19142513	      0.52987240	      0.36166225	     -0.34564412	      0.59540843	      0.16493054	     -0.35810931	      0.57145579	      0.18529854	     -0.44390236	      0.93692347	      1.42454068	     -0.44946174	      0.88995967	      1.40133038	     -0.05591761	      0.97519636	      1.40615946	     -0.22483243	      0.86116118	      1.47594980	     -0.27005497	      0.81608028	      1.26913527	     -0.02351336	      0.74487925	      1.27068599	     -0.04900058	      0.76670199	      1.19430189	     -0.00442834	      0.72791735	      1.13369379	      0.00912823	      0.70121329	      1.11940591	     -0.06712356	      0.86419823	      1.30122780	     -0.50967070	      0.79058335	      1.26613036	     -0.50257758	      0.84813026	      1.21198730	     -0.52453476	      0.79258006	      1.14894921	     -0.55259274	      0.74575499	      1.15228880	     -0.48076827	      0.82655740	      1.05352377	     -0.00727284	      0.90894817	      0.99084540	     -0.07068758	      0.87329287	      0.94266541	     -0.03311683	      0.88674005	      1.06423803	     -0.51286576	      0.96095252	      1.03101662	     -0.41548539	      0.94806201	      0.98291298	     -0.46401067
      4.09166700	     -0.54316766	     -5.01386269	     -5.69383279	      0.91219700	      0.94131846	     -0.26256415	     19.40663210	     13.60106317	      4.43844010	    -43.99727528	     19.36217677	     16.44485872	     -7.04397248	     -3.91395621	    -84.53127198	      2.68704741	    -14.16142214	      7.09936436	      0.76226028	    -19.90890128	    -19.00479338	      2.18084195	     82.55010079	    102.71120316	    -25.00430382	    -15.10502067	      2.66608415	     92.51944806	    110.02218581	      0.00000000	      0.00000000	      0.00000000	      0.00000000	      0.00000000	      0.00000000	      0.00000000	      0.00000000	      0.93385098	      0.96160478	     -0.38228192	      0.91486051	      0.97138803	     -0.14840605	      0.76970929	      0.99481373	     -0.32902288	      0.75007709	      1.00002298	     -0.23134786	      0.87080123	      0.80561273	     -0.09153506	      0.93431300	      0.55624607	     -0.15404077	      0.90295232	      0.77274235	     -0.44445327	      0.97961281	      0.67450287	     -0.43590442	      0.92640030	      0.55723652	     -0.42481685	      0.96600576	      0.33331949	     -0.23880136	      0.91349660	      0.28330708	     -0.17680322	      0.90275288	      0.22732278	     -0.25012626	      0.87707164	      0.37741534	     -0.34267474	      0.78224679	      0.38816484	     -0.42690346	      0.71072188	      0.31705306	     -0.36189149	      0.73688736	      0.10725310	     -0.25841377	      0.94062387	      0.07092926	     -0.28639670	      0.92141639	      0.06024390	     -0.19128018	      0.54214656	      0.35553844	     -0.34625250	      0.61549724	      0.16150689	     -0.35894290	      0.59144736	      0.18131390	     -0.44486758	      0.93452145	      1.42572219	     -0.44943028	      0.89318525	      1.40260486	     -0.05575453	      0.97539442	      1.40714502	     -0.22596527	      0.86104482	      1.47737794	     -0.26934146	      0.82207683	      1.26903173	     -0.02262393	      0.75071548	      1.26826823	     -0.04782378	      0.77520962	      1.19281605	     -0.00312891	      0.73858300	      1.13111952	      0.01098720	      0.71127776	      1.11611508	     -0.06503166	      0.85934503	      1.30433105	     -0.50986335	      0.78522213	      1.27086586	     -0.50164305	      0.84154925	      1.21584117	     -0.52518609	      0.78444066	      1.15400722	     -0.55333083	      0.73891104	      1.15781447	     -0.48082915	      0.83974285	      1.05437503	     -0.00739144	      0.92284123	      0.99427113	     -0.07265937	      0.88978741	      0.94485856	     -0.03407709	      0.87635479	      1.06578171	     -0.51500403	      0.95187637	      1.03003567	     -0.41924003	      0.93561355	      0.98244338	     -0.46713590
      4.10000000	     -0.83519955	     -4.86132170	     -5.60982762	      0.91128021	      0.94280862	     -0.26248257	     18.28711461	     13.34759081	      4.63859991	    -43.39556755	     19.76075428	     18.41388742	     -6.94884721	     -3.55188143	    -84.48624317	      3.52134078	    -13.97718801	      6.84051194	      1.69933716	    -18.77749726	    -18.85709300	      1.95205257	     83.79704593	    102.76281059	    -26.08043148	    -15.60733484	      3.15278426	     92.55367895	    108.82530212	      0.00000000	      0.00000000	      0.00000000	      0.00000000	      0.00000000	      0.00000000	      0.00000000	      0.00000000	      0.93272847	      0.96349162	     -0.38267674	      0.91391063	      0.97218669	     -0.14833284	      0.76893219	      0.99680400	     -0.32847704	      0.74929077	      1.00217613	     -0.23058804	      0.86705414	      0.80671172	     -0.09142983	      0.92553557	      0.55605665	     -0.15378273	      0.90387039	      0.77536427	     -0.44414668	      0.98473793	      0.67952061	     -0.43603336	      0.93529777	      0.56117297	     -0.42464666	      0.95298208	      0.33210262	     -0.23869571	      0.89958660	      0.28325184	     -0.17656088	      0.88852652	      0.22682046	     -0.24964085	      0.88945541	      0.37922557	     -0.34339142	      0.79529792	      0.38787642	     -0.42650827	      0.72555789	      0.31517868	     -0.36139091	      0.72021891	      0.10797744	     -0.25811321	      0.92383383	      0.07089730	     -0.28614577	      0.90454676	      0.06012883	     -0.19109649	      0.55467716	      0.34826970	     -0.34685217	      0.63651063	      0.15752275	     -0.35936605	      0.61226626	      0.17656144	     -0.44560208	      0.93193426	      1.42796715	     -0.44950611	      0.89676361	      1.40512812	     -0.05563255	      0.97558373	      1.40913528	     -0.22715527	      0.86083807	      1.47953097	     -0.26870779	      0.82826723	      1.27019081	     -0.02200118	      0.75664161	      1.26792211	     -0.04615243	      0.78321734	      1.19316593	     -0.00193282	      0.74855744	      1.13051825	      0.01252958	      0.72114934	      1.11496460	     -0.06344386	      0.85447553	      1.30868968	     -0.51038179	      0.77984521	      1.27699779	     -0.50191889	      0.83487803	      1.22082422	     -0.52611975	      0.77600800	      1.16041921	     -0.55442514	      0.73122941	      1.16500773	     -0.48134252	      0.85219934	      1.05734095	     -0.00775713	      0.93639582	      1.00047657	     -0.07482294	      0.90573811	      0.94959063	     -0.03599282	      0.86575754	      1.06950525	     -0.51739066	      0.94246573	      1.03190707	     -0.42273649	      0.92342081	      0.98482909	     -0.46999047
      4.10833300	     -1.14634625	     -4.63232810	     -5.54255379	      0.91061319	      0.94518440	     -0.26252256	     16.96880996	     13.00204375	      4.98435810	    -42.38690961	     19.96686700	     20.25635312	     -6.69506893	     -3.21222819	    -83.98157037	      4.20775221	    -13.70838806	      6.48913353	      2.67334621	    -17.91025190	    -18.78100937	      1.69812505	     85.36087596	    102.00529026	    -27.26184814	    -16.27214521	      3.73145459	     92.97966841	    108.17749991	      0.00000000	      0.00000000	      0.00000000	      0.00000000	      0.00000000	      0.00000000	      0.00000000	      0.00000000	      0.93173678	      0.96630300	     -0.38289799	      0.91316752	      0.97355778	     -0.14860531	      0.76835900	      0.99979240	     -0.32800444	      0.74885460	      1.00520722	     -0.23007908	      0.86339197	      0.80880717	     -0.09157786	      0.91580214	      0.55650165	     -0.15396504	      0.90560827	      0.77903477	     -0.44383117	      0.98930329	      0.68550703	     -0.43586657	      0.94336490	      0.56614800	     -0.42407366	      0.93915090	      0.33147136	     -0.23858932	      0.88482686	      0.28378600	     -0.17647141	      0.87386660	      0.22682383	     -0.24922127	      0.90152008	      0.38158524	     -0.34404218	      0.80806992	      0.38782260	     -0.42581576	      0.74094658	      0.31307310	     -0.36111165	      0.70355111	      0.10879391	     -0.25777333	      0.90706957	      0.07090743	     -0.28582701	      0.88769827	      0.06006410	     -0.19088247	      0.56753142	      0.33990071	     -0.34736707	      0.65834903	      0.15312437	     -0.35935968	      0.63376878	      0.17112441	     -0.44591656	      0.92914769	      1.43126170	     -0.44974809	      0.90049134	      1.40882088	     -0.05562366	      0.97577959	      1.41210153	     -0.22839319	      0.86048728	      1.48232338	     -0.26816038	      0.83454988	      1.27256910	     -0.02156329	      0.76247375	      1.26944330	     -0.04389666	      0.79081381	      1.19509350	     -0.00081849	      0.75791425	      1.13157698	      0.01383711	      0.73047136	      1.11560478	     -0.06212267	      0.84960401	      1.31420965	     -0.51120795	      0.77449368	      1.28435964	     -0.50311049	      0.82810007	      1.22680133	     -0.52735928	      0.76747465	      1.16803328	     -0.55579093	      0.72300174	      1.17356524	     -0.48229720	      0.86388538	      1.06205349	     -0.00836216	      0.94944728	      1.00916867	     -0.07692936	      0.92090836	      0.95653625	     -0.03868435	      0.85531741	      1.07530503	     -0.51988821	      0.93268298	      1.03621890	     -0.42576304	      0.91178539	      0.98969691	     -0.47266126
